<?xml version="1.0" standalone="no"?>
<!DOCTYPE svg PUBLIC "-//W3C//DTD SVG 20010904//EN"
 "http://www.w3.org/TR/2001/REC-SVG-20010904/DTD/svg10.dtd">
<svg version="1.0" xmlns="http://www.w3.org/2000/svg"
 width="50.000000pt" height="50.000000pt" viewBox="0 0 50.000000 50.000000"
 preserveAspectRatio="xMidYMid meet">

<g transform="translate(0.000000,50.000000) scale(0.100000,-0.100000)"
fill="#000000" stroke="none">
<path d="M155 456 c-60 -28 -87 -56 -114 -116 -36 -79 -19 -183 42 -249 33
-36 115 -71 167 -71 52 0 134 35 167 71 34 37 63 110 63 159 0 52 -35 134 -71
167 -37 34 -110 63 -159 63 -27 0 -65 -10 -95 -24z m180 -15 c128 -58 164
-223 72 -328 -101 -115 -283 -88 -348 52 -79 171 104 354 276 276z"/>
<path d="M210 370 c-11 -11 -20 -31 -20 -44 0 -15 -7 -26 -20 -29 -19 -5 -21
-12 -18 -79 l3 -73 95 0 95 0 3 73 c3 67 1 74 -18 79 -13 3 -20 14 -20 29 0
29 -33 64 -60 64 -11 0 -29 -9 -40 -20z m68 -12 c7 -7 12 -22 12 -35 0 -20 -5
-23 -40 -23 -35 0 -40 3 -40 23 0 27 17 47 40 47 9 0 21 -5 28 -12z m52 -138
l0 -60 -80 0 -80 0 0 60 0 60 80 0 80 0 0 -60z"/>
<path d="M236 242 c-7 -11 4 -52 14 -52 10 0 21 41 14 52 -3 4 -9 8 -14 8 -5
0 -11 -4 -14 -8z"/>
</g>
</svg>
