<?xml version="1.0" standalone="no"?>
<!DOCTYPE svg PUBLIC "-//W3C//DTD SVG 20010904//EN"
 "http://www.w3.org/TR/2001/REC-SVG-20010904/DTD/svg10.dtd">
<svg version="1.0" xmlns="http://www.w3.org/2000/svg"
 width="48.000000pt" height="48.000000pt" viewBox="0 0 48.000000 48.000000"
 preserveAspectRatio="xMidYMid meet">

<g transform="translate(0.000000,48.000000) scale(0.100000,-0.100000)"
fill="#000000" stroke="none">
<path d="M52 388 c-17 -17 -17 -279 0 -296 17 -17 359 -17 376 0 17 17 17 279
0 296 -17 17 -359 17 -376 0z m346 -40 c-2 -6 -39 -33 -81 -60 l-77 -48 -77
48 c-42 27 -79 54 -81 60 -3 9 38 12 158 12 120 0 161 -3 158 -12z m-78 -98
l80 50 0 -90 0 -90 -160 0 -160 0 0 90 0 90 80 -50 80 -50 80 50z"/>
</g>
</svg>
