<?xml version="1.0" standalone="no"?>
<!DOCTYPE svg PUBLIC "-//W3C//DTD SVG 20010904//EN"
 "http://www.w3.org/TR/2001/REC-SVG-20010904/DTD/svg10.dtd">
<svg version="1.0" xmlns="http://www.w3.org/2000/svg"
 width="64.000000pt" height="64.000000pt" viewBox="0 0 64.000000 64.000000"
 preserveAspectRatio="xMidYMid meet">

<g transform="translate(0.000000,64.000000) scale(0.100000,-0.100000)"
fill="#000000" stroke="none">
<path d="M182 600 c-112 -57 -172 -153 -172 -280 0 -59 6 -86 25 -129 19 -40
29 -51 37 -43 8 8 6 21 -8 49 -26 54 -30 159 -9 223 23 69 96 142 165 165 65
22 169 17 225 -10 50 -25 105 -79 130 -130 28 -55 28 -194 1 -248 -14 -28 -16
-41 -8 -49 8 -8 18 3 37 43 38 82 36 184 -5 267 -57 113 -153 172 -281 172
-65 0 -85 -4 -137 -30z"/>
<path d="M241 449 c-26 -26 -31 -38 -31 -79 0 -41 5 -53 31 -79 26 -26 38 -31
79 -31 41 0 53 5 79 31 26 26 31 38 31 79 0 41 -5 53 -31 79 -26 26 -38 31
-79 31 -41 0 -53 -5 -79 -31z m136 -21 c51 -48 15 -138 -56 -138 -47 0 -81 32
-81 79 0 72 84 109 137 59z"/>
<path d="M257 190 c-51 -13 -108 -43 -135 -73 l-23 -25 30 -21 c62 -44 113
-61 191 -61 78 0 129 17 191 61 l30 21 -26 28 c-54 56 -177 90 -258 70z m183
-53 c25 -13 45 -30 45 -38 0 -29 -75 -54 -165 -54 -85 0 -158 22 -167 51 -5
15 54 51 103 63 55 14 131 4 184 -22z"/>
</g>
</svg>
